<?xml version="1.0" standalone="no"?>
<!DOCTYPE svg PUBLIC "-//W3C//DTD SVG 20010904//EN"
 "http://www.w3.org/TR/2001/REC-SVG-20010904/DTD/svg10.dtd">
<svg version="1.0" xmlns="http://www.w3.org/2000/svg"
 width="473.000000pt" height="472.000000pt" viewBox="0 0 473.000000 472.000000"
 preserveAspectRatio="xMidYMid meet">

<g transform="translate(0.000000,472.000000) scale(0.100000,-0.100000)"
fill="#000000" stroke="none">
<path d="M30 2360 l0 -2350 2350 0 2350 0 0 2350 0 2350 -2350 0 -2350 0 0
-2350z m2443 1585 c178 -362 448 -654 749 -810 l58 -30 0 -184 0 -184 38 7
c136 24 263 37 442 45 156 7 222 15 275 30 73 22 187 74 244 112 l34 23 -7
-108 c-27 -421 -166 -755 -427 -1031 -89 -93 -244 -228 -324 -282 -180 -121
-380 -183 -645 -202 -152 -11 -186 -26 -264 -112 -80 -89 -155 -276 -171 -429
-3 -30 -8 -74 -11 -97 l-5 -43 -78 0 -78 0 -6 83 c-15 195 -92 398 -189 498
-75 77 -108 90 -256 100 -185 12 -385 60 -507 121 -243 123 -554 428 -694 681
-106 192 -174 447 -188 700 l-6 118 64 -40 c138 -86 267 -117 534 -126 102 -4
229 -15 293 -26 63 -10 120 -19 128 -19 11 0 14 33 14 183 l0 182 63 34 c172
94 361 251 487 406 115 142 235 342 314 525 l28 65 16 -35 c9 -19 42 -89 75
-155z"/>
<path d="M2339 3859 c-164 -339 -416 -615 -702 -769 l-78 -42 3 -97 3 -96 800
-3 c440 -1 810 0 823 3 21 5 22 10 22 100 l0 95 -62 31 c-99 49 -240 152 -339
247 -151 143 -269 309 -374 521 l-51 103 -45 -93z"/>
<path d="M4070 2678 c-191 -176 -623 -557 -628 -554 -1 2 16 46 38 100 43 102
80 232 79 275 0 14 -11 -11 -24 -55 -13 -45 -48 -144 -78 -220 l-54 -139 -99
-88 c-54 -49 -185 -153 -291 -233 -210 -158 -297 -244 -395 -389 -34 -49 -65
-94 -69 -99 -9 -11 22 136 56 261 58 212 105 298 194 354 l45 29 -465 0 c-445
0 -463 -1 -429 -18 90 -44 141 -129 205 -343 25 -85 64 -252 65 -277 0 -7 -27
27 -61 77 -110 163 -185 239 -372 379 -225 168 -383 305 -406 351 -23 45 -87
239 -117 351 -12 47 -23 75 -23 63 -3 -58 60 -285 101 -366 11 -22 18 -40 16
-42 -5 -5 -369 315 -611 537 -120 110 -220 198 -223 196 -5 -6 87 -109 205
-231 118 -122 673 -634 731 -674 45 -32 24 -36 -132 -30 -133 6 -243 19 -353
41 -16 3 -5 -3 25 -14 99 -37 191 -52 364 -57 l169 -6 104 -80 c57 -45 100
-84 96 -88 -12 -11 -232 -58 -315 -68 l-73 -8 82 -2 c89 -1 189 16 276 49 l56
21 73 -54 c151 -112 322 -315 404 -479 55 -110 75 -190 83 -338 l6 -115 55 0
55 0 7 104 c10 148 32 238 89 350 79 159 238 352 375 457 44 33 84 63 91 67 6
4 53 -7 105 -24 77 -26 112 -32 203 -35 103 -3 106 -2 43 6 -66 10 -213 40
-291 61 l-38 10 108 84 108 85 125 0 c142 0 272 17 384 50 42 13 75 24 73 26
-1 1 -52 -6 -112 -16 -130 -23 -374 -37 -398 -24 -14 8 30 52 250 251 276 248
487 452 606 582 58 64 95 112 85 111 -2 -1 -82 -73 -178 -162z"/>
<path d="M1710 2405 l0 -355 90 0 90 0 0 140 0 140 130 0 130 0 0 -140 0 -140
95 0 95 0 -2 353 -3 352 -92 3 -93 3 0 -136 0 -135 -130 0 -130 0 0 135 0 135
-90 0 -90 0 0 -355z"/>
<path d="M2520 2406 l0 -356 90 0 90 0 0 126 0 125 42 -3 c42 -3 42 -3 118
-123 l76 -120 102 -3 c56 -1 102 0 102 3 0 3 -40 66 -90 139 l-89 134 33 20
c113 67 140 230 54 328 -64 72 -88 79 -320 82 l-208 3 0 -355z m366 191 c17
-20 24 -40 24 -68 0 -71 -56 -105 -160 -97 l-45 3 -3 99 -3 98 82 -4 c74 -3
83 -6 105 -31z"/>
</g>
</svg>
